<?xml version="1.0" standalone="no"?>
<!DOCTYPE svg PUBLIC "-//W3C//DTD SVG 20010904//EN"
 "http://www.w3.org/TR/2001/REC-SVG-20010904/DTD/svg10.dtd">
<svg version="1.0" xmlns="http://www.w3.org/2000/svg"
 width="300.000000pt" height="227.000000pt" viewBox="0 0 300.000000 227.000000"
 preserveAspectRatio="xMidYMid meet">
<metadata>
Created by potrace 1.10, written by Peter Selinger 2001-2011
</metadata>
<g transform="translate(0.000000,227.000000) scale(0.100000,-0.100000)"
fill="#000000" stroke="none">
<path d="M1343 2064 c5 -27 2 -32 -38 -53 -24 -13 -62 -39 -84 -57 -21 -19
-44 -34 -50 -34 -6 0 -11 -6 -11 -12 0 -7 -25 -38 -56 -68 -69 -69 -140 -175
-165 -248 -37 -106 -19 -215 51 -317 35 -51 135 -148 162 -157 7 -3 6 -11 -3
-25 -17 -29 -2 -46 70 -81 57 -26 115 -33 314 -33 84 0 163 39 233 113 63 69
96 129 132 242 22 71 26 99 26 231 l1 150 -33 67 c-44 88 -127 165 -228 213
-106 51 -129 39 -25 -13 147 -73 223 -158 257 -286 37 -140 -5 -369 -97 -522
-32 -53 -80 -104 -99 -104 -10 0 -70 123 -70 145 0 8 7 18 15 21 20 8 62 100
70 154 4 25 20 66 36 93 34 56 35 63 10 77 -15 8 -29 6 -55 -7 -20 -9 -36 -20
-36 -25 0 -4 -4 -8 -9 -8 -5 0 -14 44 -20 98 -16 126 -30 209 -42 250 -8 24
-16 32 -35 32 -16 0 -24 -5 -23 -17 0 -11 3 -13 6 -5 10 26 31 10 41 -31 6
-24 21 -116 33 -206 l21 -163 -20 -28 c-12 -15 -18 -30 -15 -33 3 -4 23 20 44
53 37 58 63 80 93 80 22 0 20 -22 -3 -52 -11 -13 -27 -53 -36 -89 -30 -119
-51 -156 -107 -185 -16 -8 -28 -19 -28 -25 0 -6 7 -6 20 1 17 9 22 7 30 -17 5
-15 23 -53 40 -84 l30 -56 -28 -12 c-59 -28 -115 -42 -149 -39 l-37 3 -18 74
-18 74 26 34 c42 55 76 143 82 211 4 57 8 66 38 90 45 36 44 52 -1 18 l-35
-27 0 60 c0 50 3 59 15 55 13 -5 14 -2 5 21 -5 14 -10 50 -10 78 0 29 -3 77
-7 107 -7 52 -8 53 -13 20 -4 -23 -7 -7 -7 47 -1 45 -4 87 -8 93 -9 15 -36 12
-56 -6 -14 -13 -21 -13 -37 -3 -17 10 -23 10 -36 0 -9 -8 -16 -20 -16 -28 0
-8 -4 -12 -9 -9 -5 3 -12 -45 -16 -107 -3 -61 -11 -138 -17 -170 -6 -32 -8
-60 -5 -63 7 -8 27 63 27 98 0 20 6 28 23 31 22 4 22 4 -3 15 l-25 11 30 2
c24 1 26 3 8 6 -25 5 -28 29 -15 108 5 31 11 40 27 40 12 0 21 8 23 20 3 18 2
19 -8 2 -14 -22 -30 -13 -23 13 3 13 12 20 22 18 14 -3 16 -18 13 -98 -3 -97
-17 -227 -28 -267 -4 -13 -2 -23 4 -23 5 0 13 20 16 45 5 33 12 45 24 45 11 0
18 8 18 20 0 11 -4 20 -8 20 -4 0 -8 -8 -8 -17 0 -9 -3 -14 -6 -10 -11 11 19
117 33 117 8 0 11 5 8 10 -11 18 -33 11 -39 -12 -3 -13 -3 2 -1 32 3 30 5 72
5 94 0 29 3 37 14 33 8 -3 16 2 19 14 9 32 27 21 27 -16 0 -19 -3 -34 -7 -33
-5 0 -16 -2 -25 -6 -13 -6 -18 -19 -17 -50 1 -22 4 -31 6 -18 2 12 12 22 21
22 15 0 15 2 2 10 -11 7 -12 12 -3 21 16 16 26 -40 19 -110 -3 -31 -3 -50 0
-43 3 6 12 12 21 12 13 0 14 -25 11 -187 -4 -205 -13 -244 -77 -337 -16 -23
-43 -79 -61 -124 -17 -45 -37 -82 -43 -82 -44 1 -187 56 -201 78 -3 5 4 21 15
38 33 48 69 122 69 141 0 10 -15 55 -34 99 -37 87 -58 225 -37 238 16 11 13
26 -4 20 -10 -4 -15 0 -15 11 0 9 5 13 10 10 6 -3 10 0 10 7 1 18 30 -22 30
-41 0 -8 10 -34 21 -59 l22 -44 -22 -28 c-11 -16 -17 -32 -11 -35 23 -14 80
165 80 252 0 29 4 53 10 53 5 0 7 -6 4 -14 -3 -7 1 -16 8 -18 8 -4 13 3 13 18
0 14 -6 24 -14 24 -11 0 -12 13 -7 62 8 70 12 78 30 78 17 0 29 41 16 54 -15
15 -37 -11 -49 -61 -7 -25 -17 -98 -23 -161 -5 -63 -16 -131 -23 -151 l-13
-36 -10 25 c-38 96 -41 101 -64 98 -22 -3 -23 -5 -20 -103 4 -96 12 -130 57
-246 20 -51 17 -75 -18 -133 l-24 -38 -79 79 c-43 43 -85 91 -91 106 -58 125
-64 184 -27 278 32 80 81 152 161 239 18 19 36 43 39 53 5 16 7 16 31 -3 40
-31 57 -23 21 10 -22 19 -28 30 -18 30 9 0 33 15 55 32 21 18 47 31 57 30 12
-2 16 1 12 11 -3 8 2 17 11 21 9 3 18 0 21 -9 9 -23 26 -18 19 6 -6 18 -4 20
14 14 11 -3 36 -2 56 4 31 8 35 7 35 -10 0 -11 5 -17 10 -14 6 3 10 16 10 27
0 20 -4 21 -70 15 -64 -5 -70 -4 -70 13 0 10 -5 22 -12 26 -8 5 -9 -1 -5 -22z
m106 -1036 c1 -11 -6 -18 -18 -18 -28 0 -31 11 -14 50 16 35 16 35 23 10 5
-14 8 -33 9 -42z"/>
<path d="M1548 2059 c-8 -13 -18 -35 -23 -48 -10 -32 10 -19 31 20 19 38 13
60 -8 28z"/>
<path d="M1683 1893 c-30 -15 -44 -33 -25 -33 10 0 72 39 72 45 0 8 -13 5 -47
-12z"/>
<path d="M1170 1812 c0 -9 44 -32 58 -32 10 1 -38 40 -49 40 -5 0 -9 -4 -9 -8z"/>
<path d="M1120 1710 c0 -5 17 -10 38 -9 30 0 33 2 17 9 -28 12 -55 12 -55 0z"/>
<path d="M1490 1654 c0 -14 -7 -53 -16 -86 -18 -73 -11 -90 10 -22 8 27 15 41
15 32 1 -25 16 -23 18 2 1 11 -2 20 -8 20 -12 0 -12 47 0 52 5 2 3 9 -5 16
-12 11 -14 8 -14 -14z"/>
<path d="M1330 1489 c0 -15 26 -39 34 -32 13 14 5 39 -14 40 -11 1 -20 -3 -20
-8z"/>
<path d="M1050 1430 c-12 -8 -10 -10 10 -9 14 0 34 4 45 9 17 7 16 9 -10 9
-16 0 -37 -4 -45 -9z"/>
<path d="M1760 1420 c0 -5 19 -10 43 -9 36 1 38 2 17 9 -36 12 -60 12 -60 0z"/>
<path d="M1497 1153 c-9 -16 6 -73 19 -73 8 0 14 -7 14 -15 0 -8 5 -15 11 -15
6 0 9 6 6 14 -3 8 -11 32 -18 55 -12 39 -22 50 -32 34z"/>
</g>
</svg>
